<svg xmlns="http://www.w3.org/2000/svg" width="552.569" height="552.569" viewBox="0 0 552.569 552.569">
  <g id="layer1" transform="translate(-25.714 -25.714)">
    <path id="path1872" d="M578.283,302c0,152.588-123.7,276.284-276.284,276.284S25.714,454.586,25.714,302,149.411,25.714,302,25.714,578.283,149.411,578.283,302Z" fill="#1f1f1f" fill-rule="evenodd"/>
    <path id="path1898" d="M543.037,285.9c0,144.452-116.158,261.553-259.445,261.553S24.147,430.348,24.147,285.9,140.3,24.343,283.592,24.343,543.037,141.445,543.037,285.9Z" transform="translate(18.408 16.103)" fill="none" stroke="rgba(255,255,255,0.75)" stroke-width="2" fill-rule="evenodd" opacity="0.197"/>
    <path id="path3678" d="M267.191,22.94c-134.931,0-244.437,110.4-244.437,246.426S132.261,515.792,267.191,515.792s244.437-110.4,244.437-246.426S402.122,22.94,267.191,22.94Z" transform="translate(34.806 32.634)" fill="none" stroke="rgba(255,255,255,0.75)" stroke-width="2" fill-rule="evenodd" opacity="0.197"/>
    <path id="path3680" d="M248.606,21.344c-125.545,0-227.435,102.717-227.435,229.283S123.061,479.91,248.606,479.91,476.041,377.192,476.041,250.627,374.152,21.344,248.606,21.344Z" transform="translate(53.392 51.371)" fill="none" stroke="rgba(255,255,255,0.75)" stroke-width="2" fill-rule="evenodd" opacity="0.197"/>
    <path id="path3682" d="M224.748,19.3c-113.5,0-205.608,92.86-205.608,207.28s92.111,207.28,205.608,207.28S430.357,341,430.357,226.575,338.246,19.3,224.748,19.3Z" transform="translate(77.251 75.424)" fill="none" stroke="rgba(255,255,255,0.75)" stroke-width="2" fill-rule="evenodd" opacity="0.197"/>
    <path id="path3684" d="M200.89,17.247c-101.449,0-183.782,83-183.782,185.274S99.441,387.8,200.89,387.8s183.782-83,183.782-185.274S302.339,17.247,200.89,17.247Z" transform="translate(101.11 99.477)" fill="none" stroke="rgba(255,255,255,0.75)" stroke-width="2" fill-rule="evenodd" opacity="0.197"/>
    <path id="path3686" d="M178.113,15.292c-89.947,0-162.945,73.592-162.945,164.271s73,164.271,162.945,164.271,162.945-73.592,162.945-164.271S268.06,15.292,178.113,15.292Z" transform="translate(123.884 122.436)" fill="none" stroke="rgba(255,255,255,0.75)" stroke-width="2" fill-rule="evenodd" opacity="0.197"/>
    <path id="path3688" d="M157.342,13.509C77.885,13.509,13.4,78.519,13.4,158.622S77.885,303.736,157.342,303.736s143.942-65.01,143.942-145.114S236.8,13.509,157.342,13.509Z" transform="translate(144.657 143.378)" fill="none" stroke="rgba(255,255,255,0.75)" stroke-width="2" fill-rule="evenodd" opacity="0.197"/>
    <path id="path3690" d="M137.664,11.819c-69.52,0-125.94,56.878-125.94,126.962s56.42,126.962,125.94,126.962S263.6,208.865,263.6,138.781,207.183,11.819,137.664,11.819Z" transform="translate(164.336 163.217)" fill="none" stroke="rgba(255,255,255,0.75)" stroke-width="2" fill-rule="evenodd" opacity="0.197"/>
    <path id="path3692" d="M115.8,9.942c-58.477,0-105.934,47.844-105.934,106.8s47.458,106.8,105.934,106.8S221.73,175.69,221.73,116.738,174.272,9.942,115.8,9.942Z" transform="translate(186.202 185.261)" fill="none" stroke="rgba(255,255,255,0.75)" stroke-width="2" fill-rule="evenodd" opacity="0.197"/>
    <path id="path3694" d="M92.838,7.97C45.955,7.97,7.906,46.329,7.906,93.593s38.049,85.622,84.932,85.622,84.932-38.358,84.932-85.622S139.721,7.97,92.838,7.97Z" transform="translate(209.161 208.406)" fill="#fff" stroke="#fff" stroke-width="0.463" fill-rule="evenodd"/>
  </g>
</svg>
